HIERARCHY
ROOT pelvis
{
  OFFSET 0 100 0
  CHANNELS 6 Xposition Yposition Zposition Zrotation Xrotation Yrotation
  JOINT pelvis_right_femur
  {
    OFFSET -10.78128 -3.44521 -0.5502486
    CHANNELS 3 Zrotation Xrotation Yrotation
    JOINT right_femur_tibia
    {
      OFFSET -0.8047443 -44.0398 -0.1307829
      CHANNELS 3 Zrotation Xrotation Yrotation
      JOINT right_tibia_foot
      {
        OFFSET 3.006224 -47.83518 -5
        CHANNELS 3 Zrotation Xrotation Yrotation
        End Site
        {
          OFFSET 0 -5 15
        }
      }
    }
  }
  JOINT pelvis_left_femur
  {
    OFFSET 10.78128 -3.44521 -0.5502486
    CHANNELS 3 Zrotation Xrotation Yrotation
    JOINT left_femur_tibia
    {
      OFFSET 0.8047443 -44.0398 -0.1307829
      CHANNELS 3 Zrotation Xrotation Yrotation
      JOINT left_tibia_foot
      {
        OFFSET -4.370144 -48.10324 -4.275266
        CHANNELS 3 Zrotation Xrotation Yrotation
        End Site
        {
          OFFSET 0 -5 15
        }
      }
    }
  }
  JOINT pelvis_spine1
  {
    OFFSET 0 6.468898 -3.129235
    CHANNELS 3 Zrotation Xrotation Yrotation
    JOINT spine1
    {
      OFFSET 0 23.15396 4.99043
      CHANNELS 3 Zrotation Xrotation Yrotation
      JOINT spine2
      {
        OFFSET 0 20.79997 -5.064912
        CHANNELS 3 Zrotation Xrotation Yrotation
        JOINT neck
        {
          OFFSET 0 14.38658 9.616178
          CHANNELS 3 Zrotation Xrotation Yrotation
          End Site
          {
            OFFSET 0 20 0
          }
        }
      }
      JOINT right_manubrium
      {
        OFFSET -5.722621 16.35077 3.967754
        CHANNELS 3 Zrotation Xrotation Yrotation
        JOINT right_clavicle
        {
          OFFSET -13.16364 1.694482 -4.693211
          CHANNELS 3 Zrotation Xrotation Yrotation
          JOINT right_humerus
          {
            OFFSET -28.5034 -0.3100689 -2.792744
            CHANNELS 3 Zrotation Xrotation Yrotation
            JOINT right_radius
            {
              OFFSET -25.15693 0.02248979 -1.271978
              CHANNELS 3 Zrotation Xrotation Yrotation
              End Site
              {
                OFFSET -15 0 0
              }
            }
          }
        }
      }
      JOINT left_manubrium
      {
        OFFSET 5.722621 16.35077 3.967754
        CHANNELS 3 Zrotation Xrotation Yrotation
        JOINT left_clavicle
        {
          OFFSET 13.16364 1.694482 -4.693211
          CHANNELS 3 Zrotation Xrotation Yrotation
          JOINT left_humerus
          {
            OFFSET 29.39168 -1.063119 -2.237045
            CHANNELS 3 Zrotation Xrotation Yrotation
            JOINT left_radius
            {
              OFFSET 24.59957 -0.9528479 0.9047498
              CHANNELS 3 Zrotation Xrotation Yrotation
              End Site
              {
                OFFSET 15 -0 -0
              }
            }
          }
        }
      }
    }
  }
}
MOTION
Frames: 15
Frame Time: 0.0416666666667
0 103.5113 0 -0.08875238 -0.831477 0.3171219 1.070642 -11.51655 10.75982 -0 33.04902 -0 -8.176185 -12.83387 -4.720026 -4.8894 5.522897 -18.19212 -0 7.432925 -0 16.1814 -13.45324 27.56838 -0.3700175 -9.071208 7.126461 -1.524484 16.76677 -6.660749 3.251269 20.66506 5.052982 5.202047 -27.52502 9.113063 11.8205 -19.02387 13.71708 79.54473 31.34363 -17.03628 -0 0 19.7033 -8.34244 9.580939 1.861479 10.57099 -24.30969 -0.01663409 -94.99233 23.96246 16.75149 0 0 -7.045386 12.77534 25.38191 -5.053576
0.309612 103.4927 0.8102733 -0.0826627 -0.787661 0.6540179 1.604754 -14.21787 10.69669 -0 37.00788 -0 -8.122786 -12.62498 -5.088166 -4.926864 6.228806 -18.05092 -0 6.995181 -0 15.74863 -14.07364 27.10063 -0.9024283 -8.421951 6.65794 -1.464427 16.97754 -7.114769 3.274621 20.30565 5.283641 5.418831 -28.18848 9.399286 11.80868 -19.31241 13.40805 79.60826 31.25508 -16.99179 -0 0 19.90567 -8.615749 9.511959 2.098181 10.60372 -24.60967 -0.1659453 -94.71601 24.21237 16.94453 0 0 -7.069054 12.72915 25.00166 -4.172443
0.579525 103.6553 1.929336 -0.07538821 -0.7344241 1.063996 2.443941 -17.50107 10.49801 -0 38.85733 -0 -8.082157 -12.14924 -5.194779 -4.936018 7.088714 -17.87174 -0 6.56342 -0 15.17189 -14.68274 26.61303 -1.353154 -7.728922 6.307295 -1.453669 17.06735 -7.46251 3.318029 19.89904 5.495613 5.653174 -28.80978 9.658483 11.75592 -19.40579 13.14497 79.87432 31.21365 -17.16257 -0 0 19.84874 -8.831562 9.4695 2.284152 10.58833 -24.90991 -0.2605857 -94.46173 24.41988 17.26935 0 0 -6.925078 12.67669 24.58 -3.236644
0.8362714 103.7707 3.214289 -0.07080555 -0.6972071 1.349119 3.043263 -20.43693 10.08997 -0 38.4099 -0 -7.989568 -11.10952 -4.954101 -4.929729 8.072428 -17.62384 -0 6.152604 -0 14.52772 -15.36929 26.12793 -1.676755 -6.848769 6.062359 -1.353412 17.01612 -7.727457 3.424209 19.57056 5.707015 5.931069 -29.35674 9.969449 11.57819 -19.45346 12.9225 80.19866 31.25341 -17.44342 -0 0 19.53793 -8.981187 9.458174 2.417686 10.62513 -25.24992 -0.31649 -94.30878 24.57221 17.63952 0 0 -6.825243 12.63854 24.11478 -2.304617
0.9726617 103.6859 4.601668 -0.06724799 -0.6663879 1.584348 3.507532 -23.08643 9.539122 -0 35.83499 -0 -7.882393 -9.486252 -4.421269 -4.871891 9.0954 -17.2897 -0 5.844193 -0 13.90008 -16.20766 25.67375 -1.905 -5.806852 5.974643 -1.299524 16.80109 -7.844304 3.457336 19.14747 5.92543 6.167114 -29.93684 10.21743 11.40147 -19.42699 12.78409 80.61712 31.36801 -17.83087 -0 0 18.9791 -9.056595 9.475246 2.504277 10.65466 -25.67001 -0.3101577 -94.28792 24.65259 18.05413 0 0 -6.887278 12.64806 23.61705 -1.440784
1.319768 103.5717 6.52513 -0.07408161 -0.7050659 1.278473 3.745347 -25.0814 8.731599 -0 31.81651 -0 -7.836732 -7.406912 -3.733595 -5.038359 10.45974 -16.74956 -0 5.698441 -0 13.27471 -17.1839 25.23048 -2.164498 -4.916428 5.914187 -1.027721 16.67828 -8.001251 3.508507 18.72722 6.149614 6.443381 -30.59562 10.48019 11.25311 -19.35729 12.80575 80.93645 31.57786 -18.26115 -0 0 18.115 -9.082393 9.518564 2.544711 10.54748 -25.62032 -0.8006702 -94.51949 24.70639 18.57045 0 0 -7.094844 12.52901 23.11831 -0.6471675
1.639704 103.2309 8.619861 -0.07753318 -0.7206149 1.151827 3.817681 -26.64695 7.916531 -0 26.13476 -0 -7.74564 -5.441085 -2.875204 -5.217115 11.82931 -16.1306 -0 5.755511 -0 12.69368 -18.33097 24.72278 -2.313318 -3.995445 5.847889 -0.7503575 16.48177 -8.125152 3.53536 18.33004 6.361396 6.70836 -31.24833 10.69691 10.99932 -19.23811 12.86793 81.31535 31.84373 -18.69794 -0 0 17.18854 -9.100871 9.595048 2.615362 10.47503 -25.58291 -1.376472 -94.71692 24.82537 18.90883 0 0 -7.456855 12.2838 22.62676 0.09124982
1.852318 102.7143 11.07809 -0.0760571 -0.7047221 1.270433 3.831452 -27.77101 7.129269 -0 20.17144 -0 -7.741038 -3.788051 -2.120888 -5.319441 13.23627 -15.45829 -0 6.084365 -0 12.10445 -19.57476 24.05649 -2.32605 -3.267929 5.755995 -0.6019027 16.30355 -8.209759 3.567021 18.01681 6.484433 6.953687 -31.85674 10.77894 10.67243 -18.98539 12.80795 81.94294 32.1109 -19.21758 -0 0 16.30215 -9.12702 9.697201 2.76209 10.30794 -25.4912 -1.782402 -94.93067 24.95796 19.18473 0 0 -7.85716 11.98101 22.14714 0.823605
2.014755 102.0089 13.86136 -0.07141004 -0.6682493 1.549899 3.815379 -28.56054 6.356554 -0 14.97896 -0 -7.918567 -2.573186 -1.65879 -5.472778 14.61656 -14.68115 -0 6.64321 -0 11.41531 -20.78074 23.18749 -2.275015 -2.574716 5.54812 -0.5247231 16.06617 -8.375106 3.572442 17.75243 6.55254 7.168177 -32.47536 10.75307 10.32519 -18.80055 12.6429 82.60416 32.36271 -19.65216 -0 0 15.58874 -9.20996 9.805378 3.034144 10.0664 -25.38814 -2.130292 -95.0912 25.11952 19.38171 0 0 -8.262751 11.61865 21.68204 1.55366
2.204646 101.446 17.19741 -0.0641975 -0.6143081 1.966094 3.8609 -29.10223 5.505742 -0 11.17799 -0 -8.283773 -1.550571 -1.61001 -5.322704 16.37604 -13.80407 -0 7.466226 -0 10.42032 -21.76061 21.80723 -2.083045 -1.856648 5.083291 -0.4102964 15.942 -8.755188 3.517807 17.61543 6.57892 7.343915 -33.12151 10.6067 10.08815 -18.68932 12.40506 83.20789 32.61778 -20.05928 -0 0 14.9252 -9.373845 9.931699 3.415014 9.604507 -25.19874 -2.535987 -95.30051 25.3093 19.62669 0 0 -8.547341 11.14035 21.24116 2.330235
2.218685 100.7807 20.77829 -0.04932621 -0.5025842 2.833653 3.725937 -28.96161 4.438197 -0 9.418388 -0 -8.844687 -0.8086472 -1.838662 -5.044517 17.86955 -12.87307 -0 8.82495 -0 9.152475 -22.27613 20.11795 -1.874946 -1.580698 4.856959 -0.3334454 15.66324 -8.87671 3.586843 17.64034 6.619452 7.62032 -33.60215 10.56586 9.901004 -18.45388 12.01268 83.90804 32.85871 -20.68591 -0 0 14.19498 -9.595281 10.08446 3.872259 9.014207 -25.21556 -2.591918 -95.42415 25.51773 19.79023 0 0 -8.90302 10.66093 20.80898 3.056733
2.252857 100.3636 24.95563 -0.03290304 -0.3655806 3.898023 3.589776 -27.85392 3.421561 -0 10.01684 -0 -9.580303 -0.08199315 -2.101601 -4.623025 19.12864 -11.90036 -0 11.19449 -0 7.508208 -21.94009 18.11267 -1.737873 -1.381657 4.34848 -0.02183239 15.2831 -9.34336 3.659087 17.52574 6.625314 7.853648 -34.14109 10.51951 9.805569 -18.25494 11.58795 84.4724 33.14878 -21.263 -0 0 13.35257 -9.889122 10.26443 4.386119 8.391539 -24.92526 -3.019751 -95.59859 25.73225 20.0594 0 0 -9.345217 10.07555 20.37216 3.697389
2.187755 100.2216 29.57446 -0.0168293 -0.2092304 5.112612 3.546281 -26.51177 2.68059 -0 11.91546 -0 -10.34295 0.3269292 -2.256995 -3.902731 19.66147 -11.0425 -0 14.89371 -0 5.533723 -20.38447 15.86325 -1.506341 -1.381326 3.965141 0.3383957 14.77616 -9.694902 3.635047 17.37548 6.626677 7.986384 -34.67985 10.4133 9.800108 -18.0498 11.22679 84.95785 33.50133 -21.80711 -0 0 12.34869 -10.22984 10.48513 4.934141 7.727492 -24.51149 -3.45013 -95.75866 25.89751 20.29881 0 0 -9.957161 9.508672 19.922 4.229459
2.215481 100.4868 34.66284 -0.01157023 -0.1495343 5.575722 3.580705 -25.04267 2.260943 -0 14.31355 -0 -11.11076 -0.2590114 -2.4772 -3.532407 19.15002 -10.28678 -0 20.70464 -0 3.417188 -17.23531 13.6467 -1.179894 -1.689164 3.669094 0.722306 14.43827 -10.00636 3.421751 17.37598 6.664733 7.966653 -35.07398 10.1985 9.758909 -17.7616 10.89943 85.22419 33.85121 -22.15155 -0 0 11.55075 -10.73116 10.72192 5.569812 7.060709 -23.77857 -3.831827 -95.96856 25.97627 20.65199 0 0 -10.68327 8.945518 19.43949 4.665359
2.270793 100.9233 40.09728 -0.01404519 -0.1754751 5.373223 3.975803 -22.83021 2.092434 -0 16.09619 -0 -11.82852 -2.009499 -2.733031 -3.600268 17.19037 -9.516167 -0 28.91461 -0 1.547794 -12.59521 11.70588 -0.7508116 -2.522669 3.94007 0.9851384 14.18598 -9.772428 3.145702 17.65049 6.691909 7.88083 -35.28948 9.901492 9.725904 -17.40927 10.77697 85.33367 34.23969 -22.20987 -0 0 10.81743 -11.4305 10.96833 6.297832 6.502607 -23.1993 -3.919496 -96.00522 26.03541 20.84398 0 0 -11.57402 8.392639 18.93845 4.975447
